<svg xmlns="http://www.w3.org/2000/svg" viewBox="0 0 32 32" fill="none">
  <!-- Outer Gear Shape -->
  <path d="M16 2L18.5 6H13.5L16 2Z" fill="#4f46e5"/>
  <path d="M16 30L13.5 26H18.5L16 30Z" fill="#4f46e5"/>
  <path d="M2 16L6 13.5V18.5L2 16Z" fill="#4f46e5"/>
  <path d="M30 16L26 18.5V13.5L30 16Z" fill="#4f46e5"/>
  
  <path d="M5.5 5.5L9.5 7.5L7.5 9.5L5.5 5.5Z" fill="#4f46e5"/>
  <path d="M26.5 26.5L22.5 24.5L24.5 22.5L26.5 26.5Z" fill="#4f46e5"/>
  <path d="M5.5 26.5L7.5 22.5L9.5 24.5L5.5 26.5Z" fill="#4f46e5"/>
  <path d="M26.5 5.5L24.5 9.5L22.5 7.5L26.5 5.5Z" fill="#4f46e5"/>

  <circle cx="16" cy="16" r="10" stroke="#4f46e5" stroke-width="2.5"/>
  
  <!-- Stylized 'R' handle -->
  <path d="M14 11V21M14 11H18C19.1046 11 20 11.8954 20 13C20 14.1046 19.1046 15 18 15H14M14 15L20 21" stroke="#4f46e5" stroke-width="2.5" stroke-linecap="round" stroke-linejoin="round"/>
</svg>